<?xml version="1.0" encoding="UTF-8"?>
<svg width="653px" height="344px" viewBox="0 0 653 344" version="1.1" xmlns="http://www.w3.org/2000/svg" xmlns:xlink="http://www.w3.org/1999/xlink">
    <title>Combined Shape</title>
    <g id="Page-1" stroke="none" stroke-width="1" fill="none" fill-rule="evenodd">
        <path d="M343.595161,3.30843798 L358.501749,15.2444171 L358.501749,22.9873505 L257.356135,161.43638 L257.356135,168.889848 L390.632446,297.699019 L392.380117,316.700815 L353.787295,342.623899 L348.083314,342.623899 L163.365036,170.775904 L163.365036,163.5 L229.135201,70.3428574 L222.147166,62.5531257 L144.899421,62.5531257 L138.890536,65.6784862 L70.5336345,161.43638 L64.1259111,165.806301 L5.04413346,165.806301 L0.638205908,163.5 L0.638205908,142.62397 L101.382779,3.30843798 L343.595161,3.30843798 Z M622.573019,0.987850508 L630.750141,5.68932511 L648.823903,29.0203399 L651.620555,35.1059338 L651.620555,163.5 L648.823903,169.092083 L441.552289,290.472886 L431.740744,290.472886 L376.707839,240.323022 L374.754049,234.533931 L374.754049,59.5323705 L417.080726,3.30843798 L424.027663,0.987850508 L622.573019,0.987850508 Z M574.373621,63.7980288 L473.633463,63.7980288 L458.068975,87.1952557 L458.068975,188.90515 C459.111742,190.88976 460.462516,192.04757 462.121297,192.37858 C462.912988,192.536562 464.34079,192.619144 466.404704,192.626325 L467.011703,192.626325 C469.068247,192.619566 471.688267,192.546017 474.871763,192.405676 L475.475272,192.37858 L584.302781,128.088304 L587.163466,119.808335 L587.163466,76.1288177 L574.373621,63.7980288 Z" id="Combined-Shape" stroke="#979797" fill="#57BB65"></path>
    </g>
</svg>